<svg width="147" height="48" fill="none" xmlns="http://www.w3.org/2000/svg">
  <g clip-path="url(#a)">
    <path fill-rule="evenodd" clip-rule="evenodd"
      d="M29.277 33.677c0 2.443-.85 3.442-3.165 3.442H5.57c-2.316 0-3.165-1-3.165-3.442V28.92c0-2.294-1.105-3.59-2.167-4.184a.497.497 0 0 1 0-.85c1.105-.701 2.167-2.167 2.167-4.121V15.09c0-2.634.722-3.4 3.037-3.4H26.24c2.316 0 3.038.766 3.038 3.4v4.673c0 1.954 1.062 3.42 2.166 4.12.32.213.32.66 0 .85-1.062.616-2.166 1.912-2.166 4.185v4.758h-.001ZM9.819 30.555c1.678 1.465 3.484 2.209 5.97 2.209 3.908 0 6.457-1.954 6.457-5.12 0-3.352-3.036-4.207-5.505-4.902-1.693-.477-3.12-.88-3.12-1.96 0-.7.744-1.38 1.997-1.38 1.21 0 2.21.256 3.165.744.319.149.616.255.892.255.404 0 .723-.191.999-.573l.382-.574c.149-.212.213-.446.213-.7 0-.426-.213-.85-.531-1.063-1.275-.807-2.996-1.487-5.332-1.487-3.314 0-5.863 1.742-5.863 4.864 0 3.49 3.102 4.377 5.586 5.085 1.657.473 3.038.867 3.038 1.904 0 .998-.934 1.487-2.103 1.487a7.037 7.037 0 0 1-3.95-1.168c-.362-.234-.702-.383-1.063-.383-.32 0-.595.149-.85.468l-.51.658c-.19.213-.254.489-.254.744 0 .318.106.637.382.892ZM41.555 28.6c-.276 0-.51.107-.722.383l-.425.595c-.17.19-.213.424-.213.637 0 .276.106.552.34.765 1.402 1.21 2.932 1.848 5.035 1.848 3.292 0 5.459-1.657 5.459-4.313 0-2.824-2.568-3.545-4.654-4.131-1.43-.402-2.632-.74-2.632-1.646 0-.616.637-1.17 1.678-1.17a5.76 5.76 0 0 1 2.655.639l.064.024c.252.098.485.188.7.188.32 0 .596-.15.83-.49l.34-.487a1.13 1.13 0 0 0 .17-.616c0-.361-.17-.722-.447-.892-1.083-.723-2.528-1.275-4.503-1.275-2.783 0-4.95 1.487-4.95 4.12 0 2.928 2.615 3.675 4.712 4.273 1.403.4 2.574.735 2.574 1.612 0 .87-.786 1.275-1.784 1.275-1.296 0-2.38-.361-3.335-1-.276-.211-.616-.34-.892-.34Zm20.286 2.295a.89.89 0 0 0-.15-.51l-.275-.446c-.255-.446-.552-.616-.935-.616-.19 0-.403.042-.68.148-.275.107-.594.149-.955.149-1.126 0-1.615-.977-1.615-2.443V22.25h3.25c.616 0 1.126-.51 1.126-1.126v-1.02c0-.615-.51-1.125-1.126-1.125h-3.25v-2.634c0-.616-.51-1.126-1.125-1.126h-1.211c-.616 0-1.126.51-1.126 1.126v10.96c0 3.463 1.147 5.439 4.185 5.439 1.338 0 2.358-.276 3.377-.893.34-.17.51-.573.51-.955v-.001Zm6.882-6.755c-2.74 0-4.928 1.402-4.928 4.375 0 2.613 1.763 4.143 4.164 4.164 1.826 0 3.27-.701 3.993-1.72v.445c0 .616.51 1.126 1.126 1.126h.786c.616 0 1.126-.51 1.126-1.126V24.31c0-3.568-1.381-5.607-5.374-5.607-1.381 0-2.72.36-3.888.892-.36.17-.637.573-.637.956a.988.988 0 0 0 .082.355c.016.045.033.09.045.133l.17.36c.213.426.574.639 1.02.639.134 0 .28-.04.42-.078l.11-.03c.638-.211 1.297-.36 2.316-.36 1.87 0 2.507 1.062 2.507 3.038v.404c-.66-.49-1.848-.871-3.038-.871v-.001Zm.68 2.315c.977 0 1.742.212 2.358.659h.02v1.4c-.424.575-1.167 1.212-2.612 1.212-1.104 0-1.933-.573-1.933-1.593 0-1.147 1.02-1.678 2.167-1.678Zm16.909 4.44a.89.89 0 0 0-.15-.51l-.275-.446c-.255-.446-.552-.616-.935-.616-.19 0-.403.042-.68.148-.276.107-.594.149-.955.149-1.126 0-1.615-.977-1.615-2.443V22.25h3.25c.616 0 1.126-.51 1.126-1.126v-1.02c0-.615-.51-1.125-1.126-1.125h-3.25v-2.634c0-.616-.51-1.126-1.126-1.126h-1.21c-.616 0-1.126.51-1.126 1.126v10.96c0 3.463 1.147 5.439 4.184 5.439 1.339 0 2.358-.276 3.378-.893.34-.17.51-.573.51-.955v-.001Zm6.882-6.755c-2.74 0-4.928 1.402-4.928 4.375 0 2.613 1.784 4.143 4.163 4.164 1.827 0 3.272-.701 3.994-1.72v.445c0 .616.51 1.126 1.126 1.126h.786c.616 0 1.126-.51 1.126-1.126V24.31c0-3.568-1.381-5.607-5.375-5.607-1.38 0-2.72.36-3.887.892-.361.17-.637.573-.637.956a.988.988 0 0 0 .082.355c.016.045.033.09.045.133l.17.36c.213.426.574.639 1.02.639.134 0 .28-.04.42-.078l.11-.03c.638-.211 1.297-.36 2.316-.36 1.87 0 2.507 1.062 2.507 3.038v.404c-.66-.49-1.848-.871-3.038-.871v-.001Zm.68 2.315c.977 0 1.742.212 2.358.659h.02v1.4c-.424.575-1.167 1.212-2.612 1.212-1.104 0-1.933-.573-1.933-1.593 0-1.147 1.02-1.678 2.167-1.678Zm16.802-7.71c-1.657 0-3.25.658-4.206 1.72h-.063v-.383c0-.616-.51-1.126-1.126-1.126h-1.211c-.616 0-1.126.51-1.126 1.126v11.28c0 .616.51 1.126 1.126 1.126h1.211c.616 0 1.126-.51 1.126-1.126v-7.945c.616-.913 1.614-1.444 2.825-1.444 1.444 0 2.23.913 2.23 2.337v7.01c0 .615.51 1.125 1.126 1.125h1.211c.616 0 1.126-.51 1.126-1.126V24.5c0-.176-.007-.396-.012-.594-.005-.162-.01-.31-.01-.405.468-.913 1.487-1.55 2.783-1.55 1.636 0 2.316.913 2.316 2.59v6.82c0 .616.509 1.126 1.125 1.126h1.211c.616 0 1.126-.51 1.126-1.126v-7.69c0-3.717-1.848-4.928-4.312-4.928-2.082 0-3.59.892-4.546 2.167-.488-1.232-1.869-2.167-3.93-2.167Zm18.608-2.465c.977 0 1.976-.786 1.976-2.167 0-1.21-.999-1.996-1.976-1.996-1.168 0-2.166.786-2.166 1.996 0 1.38.998 2.167 2.166 2.167Zm1.657 3.824c0-.616-.51-1.126-1.126-1.126v-.022h-1.21c-.616 0-1.126.51-1.126 1.126v11.28c0 .616.51 1.126 1.126 1.126h1.21c.616 0 1.126-.51 1.126-1.126V20.104Zm10.94 1.784c.871 0 1.572.149 2.379.53.143.08.298.112.438.14l.135.03c.404 0 .786-.254 1.02-.636l.446-.786c.106-.15.128-.32.128-.49 0-.381-.192-.827-.531-.997-1.317-.723-2.634-1.02-4.44-1.02-4.121 0-6.989 3.144-6.989 7.074 0 4.248 2.953 7.073 7.414 7.073 1.678 0 3.101-.297 4.716-1.593.254-.191.403-.595.403-.956 0-.233-.064-.467-.212-.616l-.51-.637a1.201 1.201 0 0 0-.935-.446c-.233 0-.488.085-.722.234-.786.51-1.551.786-2.613.786-2.039 0-3.887-1.487-3.887-3.866 0-2.358 1.827-3.824 3.76-3.824Z"
      fill="#334155" />
  </g>
  <defs>
    <clipPath id="a">
      <path fill="#fff" d="M0 0h147v48H0z" />
    </clipPath>
  </defs>
</svg>
