<svg width="127" height="48" fill="none" xmlns="http://www.w3.org/2000/svg">
  <path
    d="m3.31 28.903 14.75-15.816L14.749 10 0 25.816l3.31 3.087ZM5.792 39 20.54 23.184l-3.31-3.087L2.482 35.913 5.792 39Zm31.261-18.216a3.87 3.87 0 0 0-1.441-1.115c-.594-.276-1.166-.414-1.718-.414-.284 0-.572.025-.864.075a2.23 2.23 0 0 0-.79.289c-.234.142-.43.326-.59.551-.158.226-.237.514-.237.865 0 .3.062.552.188.752.125.2.309.376.551.527.242.15.53.288.865.413.334.126.71.255 1.128.389.602.2 1.229.422 1.88.664a7.03 7.03 0 0 1 1.78.965 5.07 5.07 0 0 1 1.329 1.492c.35.593.526 1.333.526 2.219 0 1.019-.188 1.9-.564 2.644a5.274 5.274 0 0 1-1.516 1.843 6.499 6.499 0 0 1-2.181 1.078 9.17 9.17 0 0 1-2.532.35c-1.27 0-2.499-.22-3.685-.663-1.187-.443-2.173-1.074-2.959-1.893l2.808-2.858c.435.535 1.007.982 1.717 1.341.71.36 1.417.54 2.119.54.317 0 .626-.034.927-.101.301-.067.564-.176.79-.326.225-.15.405-.351.539-.602.134-.25.2-.551.2-.902 0-.334-.083-.619-.25-.853a2.45 2.45 0 0 0-.715-.639 5.76 5.76 0 0 0-1.153-.526c-.46-.159-.982-.33-1.567-.514a14.963 14.963 0 0 1-1.667-.652 5.58 5.58 0 0 1-1.454-.965 4.471 4.471 0 0 1-1.028-1.43c-.259-.559-.388-1.24-.388-2.042 0-.986.2-1.83.601-2.532.39-.689.93-1.28 1.58-1.73a6.786 6.786 0 0 1 2.206-.99c.81-.208 1.645-.314 2.482-.314 1.002 0 2.026.184 3.07.552 1.045.368 1.96.91 2.746 1.63l-2.733 2.882Zm9.677 3.736v4.763c0 .585.113 1.023.338 1.316.226.292.631.439 1.216.439.2 0 .414-.017.64-.05.194-.025.383-.075.563-.15l.05 3.007c-.283.1-.643.188-1.077.264a7.63 7.63 0 0 1-1.304.112c-.836 0-1.538-.104-2.106-.313-.568-.209-1.023-.51-1.366-.902a3.54 3.54 0 0 1-.74-1.404 6.804 6.804 0 0 1-.225-1.818V24.52h-2.006v-3.084h1.98v-3.284h4.037v3.284h2.933v3.084H46.73Zm12.234 3.96h-.527c-.451 0-.906.021-1.366.063-.46.042-.87.122-1.228.238a2.27 2.27 0 0 0-.89.514c-.234.226-.351.523-.351.89 0 .234.054.435.163.602.108.167.246.3.413.401.167.1.36.171.577.213a3.3 3.3 0 0 0 .627.063c.835 0 1.474-.23 1.917-.69.443-.46.665-1.082.665-1.867v-.427Zm-7.546-5.34a7.2 7.2 0 0 1 2.57-1.579 8.805 8.805 0 0 1 2.995-.526c1.053 0 1.943.13 2.67.389.727.259 1.316.66 1.767 1.203.452.543.782 1.228.99 2.056.21.827.314 1.809.314 2.945v6.293h-3.76v-1.329h-.076c-.317.518-.798.92-1.441 1.203a5.125 5.125 0 0 1-2.093.426 6.403 6.403 0 0 1-1.555-.2 4.554 4.554 0 0 1-1.466-.652 3.53 3.53 0 0 1-1.09-1.203c-.285-.502-.427-1.12-.427-1.855 0-.903.247-1.63.74-2.181.493-.552 1.128-.978 1.905-1.279.777-.3 1.642-.501 2.595-.601.952-.1 1.88-.151 2.782-.151v-.2c0-.619-.217-1.074-.651-1.367-.435-.292-.97-.439-1.605-.439a3.99 3.99 0 0 0-1.692.377 5.4 5.4 0 0 0-1.392.902l-2.08-2.231v-.001Zm18.688 1.38v4.763c0 .585.112 1.023.338 1.316.225.292.63.439 1.216.439.2 0 .413-.017.639-.05.226-.034.414-.084.564-.15l.05 3.007a6.88 6.88 0 0 1-1.078.264c-.43.075-.866.112-1.303.112-.836 0-1.538-.104-2.106-.313-.568-.209-1.024-.51-1.366-.902a3.537 3.537 0 0 1-.74-1.404 6.808 6.808 0 0 1-.226-1.818V24.52H64.09v-3.084h1.98v-3.284h4.037v3.284h2.933v3.084H70.106Zm9.325-7.07c0 .318-.063.614-.188.89-.12.268-.29.51-.501.715a2.44 2.44 0 0 1-1.667.652c-.669 0-1.229-.222-1.68-.665a2.15 2.15 0 0 1-.677-1.592c0-.3.059-.589.176-.865.117-.275.284-.514.501-.714.217-.2.468-.364.752-.489s.593-.188.928-.188a2.445 2.445 0 0 1 1.667.652c.209.2.376.439.501.714.126.276.188.573.188.89ZM75.02 33.92V21.437h4.111v12.485H75.02v-.002Zm15.273-8.448a2.496 2.496 0 0 0-.953-.727 2.92 2.92 0 0 0-1.228-.275c-.435 0-.828.087-1.179.263a2.86 2.86 0 0 0-.902.702c-.25.292-.447.63-.59 1.015-.143.393-.215.81-.212 1.228 0 .435.067.844.2 1.229a3 3 0 0 0 .59 1.015c.258.293.568.522.927.69.36.167.765.25 1.216.25.418 0 .831-.08 1.24-.238.41-.159.74-.389.99-.69l2.282 2.783c-.518.502-1.186.894-2.005 1.178-.84.288-1.72.432-2.608.427a8.229 8.229 0 0 1-2.757-.452 6.361 6.361 0 0 1-2.219-1.316 6.18 6.18 0 0 1-1.479-2.093c-.36-.819-.539-1.746-.539-2.783 0-1.02.18-1.938.54-2.757a6.181 6.181 0 0 1 1.478-2.093 6.519 6.519 0 0 1 2.219-1.33 7.951 7.951 0 0 1 5.352.001c.41.142.786.317 1.128.526.343.21.64.439.89.69l-2.381 2.757Zm15.091 8.449-6.593-8.173h-.05v8.173h-4.212V16.17h4.212v7.22h.075l6.343-7.22h5.364l-7.646 8.173 8.098 9.577h-5.591v.001Zm11.206-16.47c0 .317-.062.613-.188.89-.12.268-.29.51-.501.714a2.445 2.445 0 0 1-1.667.652c-.669 0-1.229-.222-1.68-.665a2.152 2.152 0 0 1-.677-1.592c0-.3.059-.589.176-.865.117-.275.284-.514.501-.714.217-.2.468-.364.752-.489s.593-.188.928-.188a2.445 2.445 0 0 1 1.667.652c.209.2.376.439.501.714.126.276.188.573.188.89v.001Zm-4.412 16.47V21.436h4.111v12.485h-4.111Zm11.833-9.401v4.763c0 .585.112 1.023.338 1.316.226.292.631.439 1.216.439.2 0 .414-.017.639-.05.194-.024.384-.075.564-.15l.05 3.007a6.88 6.88 0 0 1-1.078.264c-.43.075-.866.112-1.303.112-.836 0-1.538-.104-2.106-.313-.568-.209-1.024-.51-1.366-.902a3.535 3.535 0 0 1-.74-1.404 6.84 6.84 0 0 1-.225-1.818V24.52h-2.006v-3.084h1.981v-3.284h4.036v3.284h2.933v3.084h-2.933Z"
    fill="#334155" />
</svg>
