<svg xmlns="http://www.w3.org/2000/svg" viewBox="0 0 467.74 452.04">
  <g id="Layer_2" data-name="Layer 2">
    <g id="Layer_1-2" data-name="Layer 1">
      <ellipse fill="#eef2f5" cx="233.87" cy="422.01" rx="233.87" ry="30.03"/>
      <rect fill="#1f71ee" x="140.57" y="161.9" width="346.05" height="180.28" rx="30" ry="30" transform="rotate(-90 313.59 252.04)"/>
      <rect fill="#5f92ff" x="131.87" y="161.9" width="346.05" height="180.28" rx="30" ry="30" transform="rotate(-90 304.89 252.04)"/>
      <path fill="#fff" d="M200.39 413.5V90.57h152.1a28.18 28.18 0 0 1 28.18 28.18v266.57a28.18 28.18 0 0 1-28.18 28.18h-152.1z"/>
      <path fill="#1f71ee" d="M148.64 425.07v-346h151.1a29.17 29.17 0 0 1 29.17 29.17V395.9a29.17 29.17 0 0 1-29.17 29.17h-151.1z"/>
      <rect fill="#5f92ff" x="23.54" y="130.01" width="346.05" height="244.06" rx="33.94" ry="33.94" transform="rotate(-90 196.56 252.04)"/>
      <path fill="#1f71ee" d="M74.52 391.08V112.96a33.94 33.94 0 0 1 33.94-33.94h5.07v346.06h-5.07a33.94 33.94 0 0 1-33.94-34z"/>
      <g opacity="0.2">
        <circle cx="91.3" cy="369.29" r="11.84"/>
        <circle cx="91.3" cy="323.09" r="11.84"/>
        <circle cx="91.3" cy="276.9" r="11.84"/>
        <circle cx="91.3" cy="230.71" r="11.84"/>
        <circle cx="91.3" cy="184.52" r="11.84"/>
        <circle cx="91.3" cy="138.32" r="11.84"/>
      </g>
      <rect fill="#363636" x="72.46" y="355.57" width="11.93" height="27.44" rx="4.5" ry="4.5" transform="rotate(-90 78.425 369.285)"/>
      <rect fill="#363636" x="72.46" y="309.37" width="11.93" height="27.44" rx="4.5" ry="4.5" transform="rotate(-90 78.425 323.095)"/>
      <rect fill="#363636" x="72.46" y="263.18" width="11.93" height="27.44" rx="4.5" ry="4.5" transform="rotate(-90 78.43 276.9)"/>
      <rect fill="#363636" x="72.46" y="216.99" width="11.93" height="27.44" rx="4.5" ry="4.5" transform="rotate(-90 78.425 230.705)"/>
      <rect fill="#363636" x="72.46" y="170.8" width="11.93" height="27.44" rx="4.5" ry="4.5" transform="rotate(-90 78.425 184.515)"/>
      <rect fill="#363636" x="72.46" y="124.6" width="11.93" height="27.44" rx="4.5" ry="4.5" transform="rotate(-90 78.425 138.325)"/>
      <path opacity="0.1" d="M338.74 90.59h2.47v189.3h-2.47zM338.74 323.72h2.47v90.57h-2.47zM354.18 215.74h2.47v197.75h-2.47zM370.24 226.42h-2.47V95.09l2.47 1.79v129.54zM367.77 285.13h2.47v45.59h-2.47zM354.18 122.13h2.47v45.59h-2.47z"/>
      <path fill="#fff" d="M180.09 264.5a5 5 0 0 1-3.54-1.46L154 240.53a5 5 0 0 1 0-7.07l22.51-22.51a5 5 0 1 1 7.07 7.07l-19 19 19 19a5 5 0 0 1-3.54 8.54zM244.91 264.5a5 5 0 0 1-3.54-8.54l19-19-19-19a5 5 0 1 1 7.07-7.07L271 233.45a5 5 0 0 1 0 7.07L248.45 263a5 5 0 0 1-3.54 1.5zM203.33 279.42a5 5 0 0 1-4.84-6.27l19.72-74.85a5 5 0 0 1 9.67 2.55l-19.72 74.85a5 5 0 0 1-4.83 3.72z"/>
      <path fill="#ffe400" d="M35.39 180.05l5 13.1a2.32 2.32 0 0 0 1.35 1.35l13.1 5a2.32 2.32 0 0 1 0 4.34l-13.1 5a2.32 2.32 0 0 0-1.35 1.35l-5 13.1a2.32 2.32 0 0 1-4.34 0l-5-13.1a2.32 2.32 0 0 0-1.35-1.35l-13.1-5a2.32 2.32 0 0 1 0-4.34l13.1-5a2.32 2.32 0 0 0 1.35-1.35l5-13.1a2.32 2.32 0 0 1 4.34 0zM421.76 259.44l5.38 14.22a2.52 2.52 0 0 0 1.47 1.47l14.22 5.38a2.52 2.52 0 0 1 0 4.72l-14.23 5.37a2.52 2.52 0 0 0-1.47 1.47l-5.38 14.22a2.52 2.52 0 0 1-4.72 0l-5.38-14.22a2.52 2.52 0 0 0-1.47-1.47L396 285.22a2.52 2.52 0 0 1 0-4.72l14.22-5.38a2.52 2.52 0 0 0 1.47-1.47l5.31-14.21a2.52 2.52 0 0 1 4.76 0zM267.68 1.72l5.67 15a2.66 2.66 0 0 0 1.55 1.55l15 5.67a2.66 2.66 0 0 1 0 5l-15 5.67a2.66 2.66 0 0 0-1.55 1.55l-5.67 15a2.66 2.66 0 0 1-5 0l-5.67-15a2.66 2.66 0 0 0-1.55-1.55l-15-5.67a2.66 2.66 0 0 1 0-5l15-5.67a2.66 2.66 0 0 0 1.54-1.56l5.67-15a2.66 2.66 0 0 1 5.01.01zM151.12 356.42l5.67 15a2.66 2.66 0 0 0 1.55 1.55l15 5.67a2.66 2.66 0 0 1 0 5l-15 5.67a2.66 2.66 0 0 0-1.55 1.55l-5.67 15a2.66 2.66 0 0 1-5 0l-5.67-15a2.66 2.66 0 0 0-1.55-1.55l-15-5.67a2.66 2.66 0 0 1 0-5l15-5.67a2.66 2.66 0 0 0 1.55-1.55l5.67-15a2.66 2.66 0 0 1 5 0z"/>
    </g>
  </g>
</svg>
