<svg xmlns="http://www.w3.org/2000/svg" viewBox="0 0 582.39 458.49">
  <defs>
    <style>
      .cls-1{fill:#eef2f5;}.cls-2{fill:#5252ee;}.cls-3{fill:#7f7ff0;}.cls-4{fill:#fff;}.cls-5{fill:#ffcb2c;}.cls-6{opacity:0.2;}.cls-7{fill:#363636;}.cls-8{opacity:0.1;}.cls-9{fill:#ffe400;}.cls-10{fill:#ff4585;}.cls-11{fill:#00e5a0;}
    </style>
  </defs>
  <g id="Layer_2" data-name="Layer 2">
    <g id="Layer_1-2" data-name="Layer 1">
      <ellipse class="cls-1" cx="291.19" cy="428.46" rx="291.19" ry="30.03"/>
      <rect class="cls-2" x="197.89" y="168.35" width="346.05" height="180.28" rx="30" ry="30" transform="rotate(-90 370.92 258.49)"/>
      <rect class="cls-3" x="189.19" y="168.35" width="346.05" height="180.28" rx="30" ry="30" transform="rotate(-90 362.22 258.49)"/>
      <path class="cls-4" d="M257.71 419.94V97.04h152.1a28.18 28.18 0 0 1 28.18 28.18v266.54a28.18 28.18 0 0 1-28.18 28.18h-152.1z"/>
      <path class="cls-2" d="M206.96 431.51v-346h151.11a29.17 29.17 0 0 1 29.17 29.08v287.75a29.17 29.17 0 0 1-29.17 29.17H206.96z"/>
      <rect class="cls-3" x="80.86" y="136.46" width="346.05" height="244.06" rx="33.94" ry="33.94" transform="rotate(-90 253.89 258.49)"/>
      <path class="cls-5" d="M131.87 397.57V119.41a33.94 33.94 0 0 1 33.94-33.94h5.06v346h-5.07a33.94 33.94 0 0 1-33.93-33.9z"/>
      <g class="cls-6">
        <circle cx="148.62" cy="375.73" r="11.84"/>
        <circle cx="148.62" cy="329.54" r="11.84"/>
        <circle cx="148.62" cy="283.35" r="11.84"/>
        <circle cx="148.62" cy="237.16" r="11.84"/>
        <circle cx="148.62" cy="190.96" r="11.84"/>
        <circle cx="148.62" cy="144.77" r="11.84"/>
      </g>
      <rect class="cls-7" x="129.79" y="362.01" width="11.93" height="27.44" rx="4.5" ry="4.5" transform="rotate(-90 135.755 375.735)"/>
      <rect class="cls-7" x="129.79" y="315.82" width="11.93" height="27.44" rx="4.5" ry="4.5" transform="rotate(-90 135.75 329.54)"/>
      <rect class="cls-7" x="129.79" y="269.63" width="11.93" height="27.44" rx="4.5" ry="4.5" transform="rotate(-90 135.75 283.35)"/>
      <rect class="cls-7" x="129.79" y="223.44" width="11.93" height="27.44" rx="4.5" ry="4.5" transform="rotate(-90 135.75 237.16)"/>
      <rect class="cls-7" x="129.79" y="177.24" width="11.93" height="27.44" rx="4.5" ry="4.5" transform="rotate(-90 135.755 190.965)"/>
      <rect class="cls-7" x="129.79" y="131.05" width="11.93" height="27.44" rx="4.5" ry="4.5" transform="rotate(-90 135.75 144.77)"/>
      <path class="cls-8" d="M396.07 97.04h2.47v189.3h-2.47zM396.07 330.16h2.47v90.57h-2.47zM411.51 222.19h2.47v197.75h-2.47zM427.57 232.87h-2.47V101.54l2.47 1.79v129.54zM425.1 291.58h2.47v45.59h-2.47zM411.51 128.58h2.47v45.59h-2.47z"/>
      <path class="cls-4" d="M237.95 271a5 5 0 0 1-3.54-1.46L211.9 247a5 5 0 0 1 0-7.07l22.51-22.51a5 5 0 0 1 7.07 7.07l-19 19 19 19a5 5 0 0 1-3.54 8.54zM302.77 271a5 5 0 0 1-3.54-8.54l19-19-19-19a5 5 0 0 1 7.07-7.07l22.51 22.51a5 5 0 0 1 0 7.07l-22.51 22.51a5 5 0 0 1-3.53 1.52zM261.19 285.87a5 5 0 0 1-4.84-6.27l19.72-74.85a5 5 0 1 1 9.67 2.55L266 282.14a5 5 0 0 1-4.81 3.73z"/>
      <path class="cls-9" d="M92.72 186.5l5 13.1A2.32 2.32 0 0 0 99 201l13.1 5a2.32 2.32 0 0 1 0 4.34l-13.1 5a2.32 2.32 0 0 0-1.35 1.35l-5 13.1a2.32 2.32 0 0 1-4.34 0l-5-13.1a2.32 2.32 0 0 0-1.35-1.35l-13.1-5a2.32 2.32 0 0 1 0-4.34l13.1-5a2.32 2.32 0 0 0 1.35-1.35l5-13.1a2.32 2.32 0 0 1 4.41-.05zM479.08 265.89l5.38 14.22a2.52 2.52 0 0 0 1.47 1.47l14.22 5.42a2.52 2.52 0 0 1 0 4.72l-14.22 5.38a2.52 2.52 0 0 0-1.47 1.47l-5.38 14.22a2.52 2.52 0 0 1-4.72 0L469 298.52a2.52 2.52 0 0 0-1.47-1.47l-14.22-5.38a2.52 2.52 0 0 1 0-4.72l14.22-5.38a2.52 2.52 0 0 0 1.47-1.47l5.38-14.22a2.52 2.52 0 0 1 4.7.01zM258.14 18l5.67 15a2.66 2.66 0 0 0 1.55 1.55l15 5.67a2.66 2.66 0 0 1 0 5l-15 5.67a2.66 2.66 0 0 0-1.55 1.55l-5.67 15a2.66 2.66 0 0 1-5 0l-5.67-15a2.66 2.66 0 0 0-1.55-1.55l-15-5.67a2.66 2.66 0 0 1 0-5l15-5.67a2.66 2.66 0 0 0 1.55-1.55l5.67-15a2.66 2.66 0 0 1 5 0zM208.45 362.87l5.67 15a2.66 2.66 0 0 0 1.55 1.55l15 5.67a2.66 2.66 0 0 1 0 5l-15 5.67a2.66 2.66 0 0 0-1.55 1.55l-5.67 15a2.66 2.66 0 0 1-5 0l-5.67-15a2.66 2.66 0 0 0-1.55-1.55l-15-5.67a2.66 2.66 0 0 1 0-5l15-5.67a2.66 2.66 0 0 0 1.55-1.55l5.67-15a2.66 2.66 0 0 1 5 0z"/>
      <rect class="cls-10" x="480.14" y="173.05" width="90.16" height="59.5" rx="11.44" ry="11.44" transform="rotate(30.42 525.27 202.83)"/>
      <path class="cls-10" d="M505.53 242.61a4.27 4.27 0 0 1-5.83-3.43l-1.49-11.87-1.1-8.77a4.27 4.27 0 0 1 6.4-4.21l10.94 6.42 10.94 6.42a4.27 4.27 0 0 1-.56 7.64l-8.19 3.31z"/>
      <circle class="cls-4" cx="507.01" cy="194.63" r="5.78" transform="rotate(-59.76 507.024 194.63)"/>
      <circle class="cls-4" cx="524.1" cy="204.6" r="5.78" transform="rotate(-59.76 524.112 204.598)"/>
      <circle class="cls-4" cx="541.31" cy="214.63" r="5.78" transform="rotate(-59.76 541.326 214.627)"/>
      <rect class="cls-11" x="69.02" y="11.6" width="86.2" height="56.89" rx="10.94" ry="10.94" transform="rotate(-24.07 112.12 40.037)"/>
      <path class="cls-11" d="M132.16 77.47a4.08 4.08 0 0 1-5.9 2.64l-10.06-5.43-7.43-4a4.08 4.08 0 0 1 .27-7.32l11.07-4.95 11.07-4.95a4.08 4.08 0 0 1 5.63 4.68l-2 8.21z"/>
      <path class="cls-4" d="M115.94 53.34l-17.08-5.28 2.41-7.83 9.67 2.99 7.81-21.18 7.68 2.84-10.49 28.46z"/>
    </g>
  </g>
</svg>
