<svg width="421" height="333" viewBox="0 0 421 333" fill="none" xmlns="http://www.w3.org/2000/svg">
<ellipse cx="197.5" cy="292" rx="197.5" ry="41" fill="#EFF2F5"/>
<path d="M328 252.5C328 288.122 269.573 317 197.5 317C125.427 317 67 288.122 67 252.5C67 216.878 125.427 188 197.5 188C269.573 188 328 216.878 328 252.5Z" fill="#D29403"/>
<path d="M328 252.5C328 288.122 269.573 317 197.5 317C125.427 317 67 288.122 67 252.5C67 216.878 125.427 188 197.5 188C269.573 188 328 216.878 328 252.5Z" fill="#D29403"/>
<path d="M67 227C67 221.477 71.4772 217 77 217H318C323.523 217 328 221.477 328 227V253H67V227Z" fill="#D29403"/>
<path d="M328.257 205.316C328.257 240.857 269.825 269.669 197.745 269.669C125.666 269.669 67.2334 240.857 67.2334 205.316C67.2334 169.775 125.666 140.963 197.745 140.963C269.825 140.963 328.257 169.775 328.257 205.316Z" fill="white"/>
<path d="M328.257 205.316C328.257 240.857 269.825 269.669 197.745 269.669C125.666 269.669 67.2334 240.857 67.2334 205.316C67.2334 169.775 125.666 140.963 197.745 140.963C269.825 140.963 328.257 169.775 328.257 205.316Z" fill="white"/>
<path d="M255 292.5C255 297.747 251.194 302 246.5 302C241.806 302 238 297.747 238 292.5C238 287.254 241.806 283 246.5 283C251.194 283 255 287.254 255 292.5Z" fill="#A47811"/>
<path d="M290 280.5C290 285.747 286.194 290 281.5 290C276.806 290 273 285.747 273 280.5C273 275.254 276.806 271 281.5 271C286.194 271 290 275.254 290 280.5Z" fill="#A47811"/>
<path d="M317 263.5C317 268.747 313.418 273 309 273C304.582 273 301 268.747 301 263.5C301 258.254 304.582 254 309 254C313.418 254 317 258.254 317 263.5Z" fill="#A47811"/>
<path d="M328 208.5C328 244.122 269.573 273 197.5 273C125.427 273 67 244.122 67 208.5C67 172.878 125.427 144 197.5 144C269.573 144 328 172.878 328 208.5Z" fill="#E8A301"/>
<path d="M328 208.5C328 244.122 269.573 273 197.5 273C125.427 273 67 244.122 67 208.5C67 172.878 125.427 144 197.5 144C269.573 144 328 172.878 328 208.5Z" fill="#E8A301"/>
<path d="M67 183C67 177.477 71.4772 173 77 173H318C323.523 173 328 177.477 328 183V207H67V183Z" fill="#E8A301"/>
<path d="M328.257 155.328C328.257 190.869 269.825 219.681 197.745 219.681C125.666 219.681 67.2334 190.869 67.2334 155.328C67.2334 119.787 125.666 90.9756 197.745 90.9756C269.825 90.9756 328.257 119.787 328.257 155.328Z" fill="white"/>
<path d="M328.257 155.328C328.257 190.869 269.825 219.681 197.745 219.681C125.666 219.681 67.2334 190.869 67.2334 155.328C67.2334 119.787 125.666 90.9756 197.745 90.9756C269.825 90.9756 328.257 119.787 328.257 155.328Z" fill="white"/>
<path d="M328.257 164.328C328.257 199.869 269.825 228.681 197.745 228.681C125.666 228.681 67.2334 199.869 67.2334 164.328C67.2334 128.787 125.666 99.9756 197.745 99.9756C269.825 99.9756 328.257 128.787 328.257 164.328Z" fill="#FEB915"/>
<path d="M328.257 164.328C328.257 199.869 269.825 228.681 197.745 228.681C125.666 228.681 67.2334 199.869 67.2334 164.328C67.2334 128.787 125.666 99.9756 197.745 99.9756C269.825 99.9756 328.257 128.787 328.257 164.328Z" fill="#FEB915"/>
<path d="M67.2334 128.577H328.257V163.307H67.2334V128.577Z" fill="#FEB915"/>
<rect x="83" y="157" width="8" height="39" rx="4" fill="#D29403"/>
<rect x="108" y="171" width="8" height="41" rx="4" fill="#D29403"/>
<rect x="135" y="180" width="8" height="41" rx="4" fill="#D29403"/>
<path d="M328.257 122.384C328.257 157.925 269.825 186.736 197.745 186.736C125.665 186.736 67.2334 157.925 67.2334 122.384C67.2334 86.8425 125.665 58.0308 197.745 58.0308C269.825 58.0308 328.257 86.8425 328.257 122.384Z" fill="url(#paint0_linear_464_451)"/>
<path d="M328.257 122.384C328.257 157.925 269.825 186.736 197.745 186.736C125.665 186.736 67.2334 157.925 67.2334 122.384C67.2334 86.8425 125.665 58.0308 197.745 58.0308C269.825 58.0308 328.257 86.8425 328.257 122.384Z" fill="url(#paint1_linear_464_451)"/>
<path d="M310.937 121.362C310.937 127.927 307.956 134.293 302.337 140.209C296.71 146.133 288.497 151.536 278.235 156.106C257.713 165.245 229.257 170.936 197.745 170.936C166.234 170.936 137.778 165.245 117.256 156.106C106.993 151.536 98.7803 146.133 93.1537 140.209C87.5344 134.293 84.553 127.927 84.553 121.362C84.553 114.797 87.5344 108.431 93.1537 102.515C98.7803 96.5909 106.993 91.1879 117.256 86.6177C137.778 77.4791 166.234 71.7883 197.745 71.7883C229.257 71.7883 257.713 77.4791 278.235 86.6177C288.497 91.1879 296.71 96.5909 302.337 102.515C307.956 108.431 310.937 114.797 310.937 121.362Z" stroke="#B38519" stroke-width="3"/>
<path d="M312 123C312 150.614 260.737 173 197.5 173C134.263 173 83 150.614 83 123C83 95.3858 134.263 73 197.5 73C260.737 73 312 95.3858 312 123Z" fill="url(#paint2_linear_464_451)"/>
<path d="M312 123C312 150.614 260.737 173 197.5 173C134.263 173 83 150.614 83 123C83 95.3858 134.263 73 197.5 73C260.737 73 312 95.3858 312 123Z" fill="url(#paint3_linear_464_451)"/>
<rect width="62.7775" height="40.8114" rx="5" transform="matrix(0.859385 0.486424 -0.512512 0.872543 356.912 105.104)" fill="#EA5585"/>
<path d="M358.482 165.616C357.162 166.339 355.581 165.445 355.558 163.961L355.339 150.064C355.314 148.501 357.019 147.467 358.365 148.229L370.945 155.35C372.291 156.112 372.234 158.078 370.844 158.84L358.482 165.616Z" fill="#EA5585"/>
<ellipse rx="4.32081" ry="4.47376" transform="matrix(0.487833 0.872937 -0.858827 0.512266 360.684 132.021)" fill="white"/>
<ellipse rx="4.32081" ry="4.47376" transform="matrix(0.487833 0.872937 -0.858827 0.512266 372.733 138.916)" fill="white"/>
<ellipse rx="4.32081" ry="4.47376" transform="matrix(0.487833 0.872937 -0.858827 0.512266 384.783 145.81)" fill="white"/>
<path d="M188.07 2.34887C188.404 1.50629 189.596 1.50629 189.93 2.34888L195.043 15.2661C195.15 15.5371 195.371 15.7479 195.646 15.8431L209.268 20.5549C210.165 20.8654 210.165 22.1346 209.268 22.4451L195.646 27.1569C195.371 27.2521 195.15 27.4629 195.043 27.7339L189.93 40.6511C189.596 41.4937 188.404 41.4937 188.07 40.6511L182.957 27.7339C182.85 27.4629 182.629 27.2521 182.354 27.1569L168.732 22.4451C167.835 22.1346 167.835 20.8654 168.732 20.5549L182.354 15.8431C182.629 15.7479 182.85 15.5371 182.957 15.2661L188.07 2.34887Z" fill="#FBE54D"/>
<path d="M33.557 127.673C33.8709 126.783 35.1291 126.783 35.443 127.673L39.884 140.26C39.981 140.535 40.1933 140.754 40.4652 140.859L52.5978 145.568C53.4487 145.898 53.4487 147.102 52.5978 147.432L40.4652 152.141C40.1933 152.246 39.981 152.465 39.884 152.74L35.443 165.327C35.1291 166.217 33.8709 166.217 33.557 165.327L29.116 152.74C29.019 152.465 28.8067 152.246 28.5348 152.141L16.4022 147.432C15.5513 147.102 15.5513 145.898 16.4022 145.568L28.5348 140.859C28.8067 140.754 29.019 140.535 29.116 140.26L33.557 127.673Z" fill="#FBE54D"/>
<path d="M148.553 266.786C148.86 265.882 150.14 265.882 150.447 266.786L155.429 281.448C155.523 281.724 155.732 281.945 156.003 282.054L169.698 287.572C170.533 287.909 170.533 289.091 169.698 289.428L156.003 294.946C155.732 295.055 155.523 295.276 155.429 295.552L150.447 310.214C150.14 311.118 148.86 311.118 148.553 310.214L143.571 295.552C143.477 295.276 143.268 295.055 142.997 294.946L129.302 289.428C128.467 289.091 128.467 287.909 129.302 287.572L142.997 282.054C143.268 281.945 143.477 281.724 143.571 281.448L148.553 266.786Z" fill="#FBE54D"/>
<path d="M340.065 188.473C340.391 187.611 341.609 187.611 341.935 188.473L347.049 201.993C347.153 202.266 347.37 202.48 347.644 202.579L361.402 207.56C362.282 207.878 362.282 209.122 361.402 209.44L347.644 214.421C347.37 214.52 347.153 214.734 347.049 215.007L341.935 228.527C341.609 229.389 340.391 229.389 340.065 228.527L334.951 215.007C334.847 214.734 334.63 214.52 334.356 214.421L320.598 209.44C319.718 209.122 319.718 207.878 320.598 207.56L334.356 202.579C334.63 202.48 334.847 202.266 334.951 201.993L340.065 188.473Z" fill="#FBE54D"/>
<rect width="68.9835" height="44.8202" rx="5" transform="matrix(0.858588 -0.512666 0.48744 0.873157 25.707 37.4084)" fill="#67E2A5"/>
<path d="M85.4411 70.007C85.4858 71.629 83.7437 72.6692 82.4078 71.8182L67.2894 62.187C66.0329 61.3864 66.0791 59.4893 67.374 58.7161L81.9867 49.9908C83.2816 49.2176 84.8933 50.1248 84.9354 51.6505L85.4411 70.007Z" fill="#67E2A5"/>
<ellipse cx="60.8525" cy="32.4967" rx="6.64913" ry="6.87663" fill="white"/>
<path d="M59.0778 56.9464C56.3857 52.1241 58.0474 45.9196 62.7892 43.0882L70.296 38.6059C75.0378 35.7745 81.0642 37.3885 83.7563 42.2108L85.2766 44.9343L60.5981 59.6699L59.0778 56.9464Z" fill="white"/>
<rect width="8" height="35.872" rx="4" transform="matrix(-0.533901 -0.845547 0.884338 -0.466847 146 128)" fill="#B38519"/>
<rect width="8" height="64.5197" rx="4" transform="matrix(-0.948835 -0.315772 0.369837 -0.929097 190.885 155)" fill="#B38519"/>
<rect width="8" height="35.872" rx="4" transform="matrix(-0.533901 0.845547 -0.884338 -0.466847 178 134)" fill="#B38519"/>
<path d="M225.537 139.133C223.584 140.164 221.044 139.486 219.864 137.618V137.618C218.685 135.75 219.313 133.4 221.266 132.368L245.914 119.356C247.868 118.325 250.408 119.003 251.587 120.871V120.871C252.767 122.739 252.139 125.089 250.186 126.121L225.537 139.133Z" fill="#B38519"/>
<rect width="8" height="35.872" rx="4" transform="matrix(-0.533901 0.845547 -0.884338 -0.466847 254 121)" fill="#B38519"/>
<defs>
<linearGradient id="paint0_linear_464_451" x1="189.835" y1="186.736" x2="362.561" y2="-21.2541" gradientUnits="userSpaceOnUse">
<stop stop-color="#FFCC53"/>
<stop offset="0.418898" stop-color="#FFDC8A"/>
<stop offset="1" stop-color="#FFF3D7"/>
</linearGradient>
<linearGradient id="paint1_linear_464_451" x1="189.835" y1="186.736" x2="362.561" y2="-21.2541" gradientUnits="userSpaceOnUse">
<stop stop-color="#FFCC53"/>
<stop offset="0.418898" stop-color="#FFDC8A"/>
<stop offset="1" stop-color="#FFF3D7"/>
</linearGradient>
<linearGradient id="paint2_linear_464_451" x1="190.561" y1="173" x2="320.885" y2="-4.20097" gradientUnits="userSpaceOnUse">
<stop stop-color="#FEB915"/>
<stop offset="0.418898" stop-color="#FFDC8A"/>
<stop offset="1" stop-color="#FFF3D7"/>
</linearGradient>
<linearGradient id="paint3_linear_464_451" x1="190.561" y1="173" x2="320.885" y2="-4.20097" gradientUnits="userSpaceOnUse">
<stop stop-color="#FEB915"/>
<stop offset="0.418898" stop-color="#FFDC8A"/>
<stop offset="1" stop-color="#FFF3D7"/>
</linearGradient>
</defs>
</svg>
