<?xml version="1.0" encoding="UTF-8"?>
<svg id="Layer_1" data-name="Layer 1" xmlns="http://www.w3.org/2000/svg" viewBox="0 0 582.39 458.49">
  <defs>
    <style>
      .cls-1 {
        fill: #00e5a0;
      }

      .cls-2 {
        fill: #eef2f5;
      }

      .cls-3 {
        fill: #e6e6e6;
      }

      .cls-4 {
        fill: #fee400;
      }

      .cls-5 {
        fill: #fff;
      }

      .cls-6 {
        fill: #ff4585;
      }

      .cls-7 {
        fill: #7f7ff0;
      }

      .cls-8 {
        fill: #363636;
      }
    </style>
  </defs>
  <ellipse class="cls-2" cx="291.19" cy="428.46" rx="291.19" ry="30.03"/>
  <path class="cls-7" d="M94.28,226.37c0-108.75,88.16-196.92,196.92-196.92s196.92,88.16,196.92,196.92c0,75.78-42.81,141.57-105.57,174.49-27.3,14.32-58.38-12.43-91.35-12.43-22.94,0-44.96,30.93-65.44,23.72-76.58-26.98-131.47-99.97-131.47-185.78Z"/>
  <rect class="cls-6" x="596.3" y="-67.3" width="59.5" height="90.16" rx="11.44" ry="11.44" transform="translate(328.22 528.9) rotate(-59.58)"/>
  <g>
    <rect class="cls-3" x="158.7" y="37.28" width="265.22" height="378.18" rx="30" ry="30" transform="translate(-10.62 14.38) rotate(-2.78)"/>
    <rect class="cls-5" x="145.53" y="37.92" width="265.22" height="378.18" rx="30" ry="30" transform="translate(-10.67 13.74) rotate(-2.78)"/>
    <path class="cls-6" d="M140.58,128.04l-2.6-53.51c-.8-16.55,11.96-30.62,28.51-31.42l204.98-9.94c16.55-.8,30.62,11.96,31.42,28.51l2.6,53.51-264.91,12.85Z"/>
    <rect class="cls-8" x="161.75" y="143.74" width="128.01" height="12.88" rx="6.42" ry="6.42" transform="translate(-7.01 11.11) rotate(-2.78)"/>
    <rect class="cls-3" x="164.92" y="208.64" width="160" height="12.88" rx="6.42" ry="6.42" transform="translate(-10.13 12.12) rotate(-2.78)"/>
    <rect class="cls-8" x="163.38" y="178.26" width="58.72" height="12.88" rx="6.42" ry="6.42" transform="translate(-8.72 9.55) rotate(-2.78)"/>
    <rect class="cls-3" x="166.54" y="242.71" width="108.99" height="12.88" rx="6.42" ry="6.42" transform="translate(-11.81 11) rotate(-2.78)"/>
    <rect class="cls-3" x="170.18" y="317.14" width="160" height="12.88" rx="6.42" ry="6.42" transform="translate(-15.38 12.5) rotate(-2.78)"/>
    <rect class="cls-3" x="168.62" y="285.54" width="108.99" height="12.88" rx="6.42" ry="6.42" transform="translate(-13.88 11.15) rotate(-2.78)"/>
    <rect class="cls-3" x="171.8" y="351.21" width="108.99" height="12.88" rx="6.42" ry="6.42" transform="translate(-17.06 11.38) rotate(-2.78)"/>
    <rect class="cls-4" x="319.94" y="77.98" width="60.57" height="63.56" rx="13.76" ry="13.76" transform="translate(-4.91 17.09) rotate(-2.78)"/>
  </g>
  <g>
    <circle class="cls-1" cx="405.49" cy="348.96" r="51.89"/>
    <path class="cls-5" d="M396.69,374.45l-24.26-23.7,10.85-11.13,13.74,13.42,31.52-28.99,10.51,11.44s-42.34,38.96-42.34,38.96Z"/>
  </g>
  <path class="cls-4" d="M141.58,319.12l12.69,22.46c.94,1.66,2.72,2.66,4.63,2.61l25.78-.8c5.36-.17,7.35,6.96,2.68,9.6l-22.46,12.69c-1.66,.94-2.66,2.72-2.61,4.63l.8,25.78c.17,5.36-6.96,7.35-9.6,2.68l-12.69-22.46c-.94-1.66-2.72-2.66-4.63-2.61l-25.78,.8c-5.36,.17-7.35-6.96-2.68-9.6l22.46-12.69c1.66-.94,2.66-2.72,2.61-4.63l-.8-25.78c-.17-5.36,6.96-7.35,9.6-2.68Z"/>
  <path class="cls-4" d="M456.08,148.79l-.5,22.57c-.05,2.16,1.11,4.18,3,5.23l19.75,10.93c5.32,2.95,3.13,11.06-2.95,10.92l-22.57-.5c-2.16-.05-4.18,1.11-5.23,3l-10.93,19.75c-2.95,5.32-11.06,3.13-10.92-2.95l.5-22.57c.05-2.16-1.11-4.18-3-5.23l-19.75-10.93c-5.32-2.95-3.13-11.06,2.95-10.92l22.57,.5c2.16,.05,4.18-1.11,5.23-3l10.93-19.75c2.95-5.32,11.06-3.13,10.92,2.95Z"/>
</svg>